<svg width="83" height="28" viewBox="0 0 83 28" fill="none" xmlns="http://www.w3.org/2000/svg">
<path d="M41.1853 3.85982C42.3404 3.85982 42.8053 4.0899 42.8053 4.0899L43.5003 1.15983C43.5003 1.15983 44.0403 3.39494 44.2703 5.39997C44.5004 7.405 48.0503 6.09491 51.0555 5.47508C54.0654 4.85996 54.6805 0 54.6805 0H82.5209C82.5209 0 65.7058 5.09004 69.9507 16.275C69.9507 16.275 45.1155 12.4951 41.2604 28C37.4053 12.4998 12.5702 16.275 12.5702 16.275C16.8103 5.09004 0 0 0 0H27.8403C27.8403 0 28.4555 4.85996 31.4654 5.47508C34.4753 6.09021 38.0205 7.405 38.2506 5.39997C38.4806 3.39494 39.0206 1.15983 39.0206 1.15983L39.7156 4.0899C39.7156 4.0899 40.1805 3.85982 41.3356 3.85982H41.1853Z" fill="white"/>
</svg>
