<svg width="147" height="48" viewBox="0 0 147 48" fill="none" xmlns="http://www.w3.org/2000/svg">
<g clip-path="url(#clip0_32_892)">
<path d="M141.729 29.3349L145.787 32.0403C144.47 33.9803 141.32 37.3087 135.874 37.3087C129.11 37.3087 124.073 32.0759 124.073 25.4192C124.073 18.3353 129.163 13.5297 135.304 13.5297C141.48 13.5297 144.506 18.4421 145.485 21.0941L146.019 22.4468L130.107 29.0323C131.317 31.4173 133.204 32.6276 135.874 32.6276C138.543 32.6276 140.394 31.3105 141.729 29.3349ZM129.252 25.0454L139.878 20.6314C139.291 19.1541 137.547 18.104 135.464 18.104C132.812 18.104 129.128 20.4534 129.252 25.0454Z" fill="#999999"/>
<path d="M116.402 1.40887H121.528V36.2229H116.402V1.40887Z" fill="#999999"/>
<path d="M108.321 14.4553H113.269V35.6C113.269 44.3747 108.09 47.9878 101.967 47.9878C96.2005 47.9878 92.7297 44.1077 91.4304 40.9574L95.9691 39.0707C96.7878 41.0108 98.7635 43.3068 101.967 43.3068C105.901 43.3068 108.321 40.8684 108.321 36.3119V34.6033H108.143C106.969 36.0272 104.726 37.3087 101.878 37.3087C95.9335 37.3087 90.4871 32.1293 90.4871 25.4548C90.4871 18.7447 95.9335 13.5119 101.878 13.5119C104.708 13.5119 106.969 14.7756 108.143 16.1639H108.321V14.4553ZM108.677 25.4548C108.677 21.2543 105.883 18.193 102.323 18.193C98.7279 18.193 95.7021 21.2543 95.7021 25.4548C95.7021 29.6019 98.7279 32.6098 102.323 32.6098C105.883 32.6276 108.677 29.6019 108.677 25.4548Z" fill="#999999"/>
<path d="M62.3475 25.3658C62.3475 32.2183 57.008 37.2553 50.4581 37.2553C43.9082 37.2553 38.5686 32.2005 38.5686 25.3658C38.5686 18.4777 43.9082 13.4585 50.4581 13.4585C57.008 13.4585 62.3475 18.4777 62.3475 25.3658ZM57.1503 25.3658C57.1503 21.0941 54.0534 18.1574 50.4581 18.1574C46.8628 18.1574 43.7658 21.0941 43.7658 25.3658C43.7658 29.6019 46.8628 32.5742 50.4581 32.5742C54.0534 32.5742 57.1503 29.6019 57.1503 25.3658Z" fill="#999999"/>
<path d="M88.3157 25.4192C88.3157 32.2717 82.9761 37.3087 76.4262 37.3087C69.8763 37.3087 64.5367 32.2717 64.5367 25.4192C64.5367 18.5311 69.8763 13.5297 76.4262 13.5297C82.9761 13.5297 88.3157 18.5133 88.3157 25.4192ZM83.1007 25.4192C83.1007 21.1475 80.0037 18.2108 76.4084 18.2108C72.8131 18.2108 69.7161 21.1475 69.7161 25.4192C69.7161 29.6553 72.8131 32.6276 76.4084 32.6276C80.0215 32.6276 83.1007 29.6375 83.1007 25.4192Z" fill="#999999"/>
<path d="M19.0257 32.0937C11.5681 32.0937 5.73018 26.0777 5.73018 18.6201C5.73018 11.1625 11.5681 5.14658 19.0257 5.14658C23.0482 5.14658 25.985 6.73065 28.1564 8.75969L31.7339 5.18217C28.7082 2.281 24.6679 0.0739746 19.0257 0.0739746C8.80934 0.0739746 0.212616 8.40372 0.212616 18.6201C0.212616 28.8365 8.80934 37.1663 19.0257 37.1663C24.5433 37.1663 28.7082 35.3508 31.9653 31.9691C35.3115 28.6229 36.3438 23.9241 36.3438 20.1152C36.3438 18.9227 36.2014 17.6946 36.0412 16.7869H19.0257V21.7349H31.1466C30.7906 24.8318 29.8117 26.9499 28.37 28.3916C26.6257 30.1536 23.867 32.0937 19.0257 32.0937Z" fill="#999999"/>
</g>
<defs>
<clipPath id="clip0_32_892">
<rect width="146.286" height="48" fill="white"/>
</clipPath>
</defs>
</svg>
